# xmcd CD database file
#
# Track frame offsets:
#	150
#	16378
#	28510
#	45210
#	58805
#	75503
#	91700
#	107538
#	122518
#	138613
#	152288
#
# Disc length: 2406 seconds
#
# Revision: 2
# Processed by: cddbd v1.5PL3 Copyright (c) Steve Scherf et al.
# Submitted via: CDex 1.51
#
DISCID=7309640b
DTITLE=Michael Peterson - Michael Peterson
DYEAR=1997
DGENRE=Country
TTITLE0=Lost In The Shuffle
TTITLE1=Love' s Great
TTITLE2=When The Bartender Cries
TTITLE3=Drink, Swear, Steal and Lie
TTITLE4=I Finally Passed The Bar
TTITLE5=From Here To Eternity
TTITLE6=That's What They Said About The Buffalo
TTITLE7=Too Good  To Be True
TTITLE8=Since I Thought I Knew It All
TTITLE9=By The Book
TTITLE10=For A Song
EXTD=YEAR: 1997
EXTT0=
EXTT1=
EXTT2=
EXTT3=
EXTT4=
EXTT5=
EXTT6=
EXTT7=
EXTT8=
EXTT9=
EXTT10=
PLAYORDER=
